<svg xmlns="http://www.w3.org/2000/svg" version="1.1" xmlns:xlink="http://www.w3.org/1999/xlink" xmlns:svgjs="http://svgjs.dev/svgjs" width="1500" height="1372" viewBox="0 0 1500 1372"><g transform="matrix(1,0,0,1,0.03292815260329007,0.5564913207946347)"><svg viewBox="0 0 270 247" data-background-color="#ffa96a" preserveAspectRatio="xMidYMid meet" height="1372" width="1500" xmlns="http://www.w3.org/2000/svg" xmlns:xlink="http://www.w3.org/1999/xlink"><g id="tight-bounds" transform="matrix(1,0,0,1,-0.005727595287964959,-0.09997365579206985)"><svg viewBox="0 0 270.01165466275654 247.2" height="247.2" width="270.01165466275654"><g><svg viewBox="0 0 270.01165466275654 247.2" height="247.2" width="270.01165466275654"><g><svg viewBox="0 0 270.01165466275654 247.2" height="247.2" width="270.01165466275654"><g id="textblocktransform"><svg viewBox="0 0 270.01165466275654 247.2" height="247.2" width="270.01165466275654" id="textblock"><g><svg viewBox="0 0 270.01165466275654 247.2" height="247.2" width="270.01165466275654"><path d="M269.38 53.02C268.11 27.36 264.492 20.227 264.492 20.227 253.385-6.202 239.524-0.506 227.071 3.292 205.085 3.446 183.188 9.091 161.253 12.119 115.213 12.581 68.779 4.986 22.967 23.717 18.664 29.464-4.464 24.846 0.765 56.304 2.136 69.39 7.138 83.913 6.985 95.922 7.671 98.026 8.623 93.202 9.029 96.23 10.451 104.39 12.774 100.541 14.678 105.365 12.025 118.246 13.929 128.971 15.744 140.21 12.545 143.135 8.445 141.749 6.605 151.449 6.414 158.479 5.386 157.145 4.256 156.837 3.431 156.632 1.768 157.402 2.048 159.608 3 167.152-1.088 171.514 1.476 178.904-0.288 186.91 2.695 193.838 2.289 202.511 2.238 204.255 2.517 205.744 2.961 206.154 4.929 208.361 2.06 212.672 2.365 217.342 22.548 249.262 44.445 227.195 65.123 241.872 70.493 231.608 66.456 245.516 68.601 243.36 70.277 240.846 71.495 251.263 73.387 245.362 73.679 243.668 73.234 239.665 74.275 240.435 74.821 240.846 75.304 240.743 75.38 238.382 75.494 234.841 74.491 237.048 74.225 235.201 77.106 225.861 76.395 248.081 79.099 247.158 78.972 244.438 78.185 240.538 79.797 241.051 81.397 237.151 81.447 233.918 82.869 242.693 82.92 244.592 83.174 245.926 83.58 246.85 88.023 237.305 92.44 250.237 97.099 245.926 99.955 241.205 102.697 248.492 105.591 246.696 106.607 245.259 107.635 242.693 108.612 247.004 120.582 247.928 133.34 244.079 144.688 247.158 175.014 241.41 207.421 249.518 239.397 241.923 246.937 238.998 254.769 234.841 262.119 231.506 262.119 231.506 268.072 222.371 268.072 181.316S269.341 145.393 269.532 112.703C269.722 80.013 270.611 78.679 269.341 53.02Z" opacity="1" fill="#f8db5e" data-fill-palette-color="tertiary"></path><g transform="matrix(1,0,0,1,55.76831999999999,26.230666666666668)"><svg width="158.47501466275656" viewBox="0 -34.1 27.75 34.1" height="194.73866666666666" data-palette-color="#ffa96a"><path d="M13.85-4.15L24.1-34.1 27.75-34.1 15.85 0 11.85 0 0-34.1 3.75-34.1 13.85-4.15Z" opacity="1" transform="matrix(1,0,0,1,0,0)" fill="#ffa96a" class="wordmark-text-0" data-fill-palette-color="quaternary" id="text-0"></path></svg></g></svg></g></svg></g></svg></g><g></g></svg></g><defs></defs></svg><rect width="270.01165466275654" height="247.2" fill="none" stroke="none" visibility="hidden"></rect></g></svg></g></svg>